<svg width="24" height="24" viewBox="0 0 24 24" fill="none" xmlns="http://www.w3.org/2000/svg">
<path d="M7 21.25C9.34721 21.25 11.25 19.3472 11.25 17C11.25 14.6528 9.34721 12.75 7 12.75C4.65279 12.75 2.75 14.6528 2.75 17C2.75 19.3472 4.65279 21.25 7 21.25Z" fill="white"/>
<path d="M17 21.25C19.3472 21.25 21.25 19.3472 21.25 17C21.25 14.6528 19.3472 12.75 17 12.75C14.6528 12.75 12.75 14.6528 12.75 17C12.75 19.3472 14.6528 21.25 17 21.25Z" fill="white"/>
<path fill-rule="evenodd" clip-rule="evenodd" d="M10.9152 15.888C11.2362 15.6738 11.6134 15.5595 11.9992 15.5595C12.385 15.5595 12.7622 15.6738 13.0832 15.888C13.2487 15.9957 13.45 16.0338 13.6435 15.994C13.8369 15.9542 14.0068 15.8398 14.1164 15.6754C14.2259 15.5111 14.2662 15.3102 14.2286 15.1164C14.1909 14.9225 14.0783 14.7513 13.9152 14.64C13.3479 14.2615 12.6812 14.0594 11.9992 14.0594C11.3172 14.0594 10.6505 14.2615 10.0832 14.64C9.9201 14.7513 9.80749 14.9225 9.76983 15.1164C9.73216 15.3102 9.77248 15.5111 9.88202 15.6754C9.99157 15.8398 10.1615 15.9542 10.3549 15.994C10.5484 16.0338 10.7497 15.9957 10.9152 15.888V15.888ZM19.3082 6.352C19.1681 5.86069 18.929 5.40323 18.6056 5.0077C18.2822 4.61217 17.8814 4.28693 17.4277 4.05196C16.9741 3.81698 16.4772 3.67724 15.9676 3.6413C15.4579 3.60537 14.9463 3.674 14.4642 3.84299L13.0732 4.32999C12.3778 4.57297 11.6206 4.57297 10.9252 4.32999L9.5342 3.84299C9.05206 3.674 8.54047 3.60537 8.03084 3.6413C7.52121 3.67724 7.02431 3.81698 6.57065 4.05196C6.117 4.28693 5.71618 4.61217 5.3928 5.0077C5.06943 5.40323 4.83033 5.86069 4.6902 6.352L3.2782 11.294C3.24675 11.4056 3.24152 11.5229 3.26293 11.6369C3.28434 11.7508 3.3318 11.8582 3.40161 11.9508C3.47141 12.0434 3.56168 12.1185 3.66534 12.1704C3.76901 12.2223 3.88327 12.2496 3.9992 12.25H19.9992C20.1153 12.25 20.2298 12.223 20.3336 12.1712C20.4375 12.1194 20.528 12.0443 20.5978 11.9516C20.6677 11.8589 20.7152 11.7513 20.7364 11.6372C20.7576 11.5231 20.7521 11.4056 20.7202 11.294L19.3082 6.352Z" fill="white"/>
<path fill-rule="evenodd" clip-rule="evenodd" d="M22 10.75H2C1.80109 10.75 1.61032 10.829 1.46967 10.9697C1.32902 11.1103 1.25 11.3011 1.25 11.5C1.25 11.6989 1.32902 11.8897 1.46967 12.0303C1.61032 12.171 1.80109 12.25 2 12.25H22C22.1989 12.25 22.3897 12.171 22.5303 12.0303C22.671 11.8897 22.75 11.6989 22.75 11.5C22.75 11.3011 22.671 11.1103 22.5303 10.9697C22.3897 10.829 22.1989 10.75 22 10.75Z" fill="white"/>
</svg>
