<svg xmlns="http://www.w3.org/2000/svg" fill="#7453B2" fill-rule="evenodd" stroke-linejoin="round" stroke-miterlimit="2" clip-rule="evenodd" viewBox="0 0 24 24"><circle cx="7" cy="17" r="4.25"/><circle cx="17" cy="17" r="4.25"/><path d="M10.916 15.888a1.953 1.953 0 0 1 2.168 0 .75.75 0 0 0 .832-1.248 3.452 3.452 0 0 0-3.832 0 .75.75 0 0 0 .832 1.248zm8.393-9.536a3.748 3.748 0 0 0-4.844-2.509l-1.391.487a3.256 3.256 0 0 1-2.148 0l-1.391-.487a3.748 3.748 0 0 0-4.844 2.509l-1.412 4.942A.752.752 0 0 0 4 12.25h16a.75.75 0 0 0 .721-.956l-1.412-4.942z"/><path d="M22 10.75H2a.75.75 0 0 0 0 1.5h20a.75.75 0 0 0 0-1.5Z"/></svg>